<svg width="342" height="84" viewBox="0 0 342 84" fill="none" xmlns="http://www.w3.org/2000/svg">
<g clip-path="url(#clip0_76_274)">
<path d="M298.657 84C298.101 84 297.596 83.7715 297.268 83.3699C297.099 83.1636 296.981 82.9167 296.918 82.6441C296.749 81.9035 296.203 81.3066 295.485 81.0708C295.26 80.9971 295.028 80.9602 294.799 80.9602C294.291 80.9602 293.794 81.1371 293.396 81.4724C291.332 83.2189 288.381 84 286.369 84H258.282C256.554 84 254.778 83.4805 253.54 82.6109C253.161 82.3456 252.726 82.2167 252.295 82.2167C251.628 82.2167 250.972 82.5225 250.548 83.0936C250.515 83.1378 250.482 83.1783 250.445 83.2189C250.01 83.7015 249.259 84 248.481 84H233.235C232.796 84 232.339 83.7458 231.975 83.3036C231.617 82.8688 231.462 82.3751 231.547 81.9514C231.849 80.437 231.882 77.3494 231.356 74.376C230.795 71.2183 229.79 69.0997 228.518 68.4107C228.209 68.2412 227.863 68.1528 227.509 68.1491C227.38 68.127 227.251 68.116 227.126 68.116C226.12 68.116 225.221 68.8197 225.003 69.8366L222.446 81.7708C222.192 82.983 221.006 84 219.856 84H206.234C205.685 84 205.184 83.7642 204.849 83.3552C204.757 83.241 204.68 83.1194 204.617 82.9867C204.282 82.2756 203.589 81.804 202.808 81.745C202.756 81.7414 202.705 81.7377 202.653 81.7377C201.927 81.7377 201.246 82.1024 200.84 82.7104C200.324 83.4915 199.462 83.9963 198.644 83.9963H165.557C165.001 83.9963 164.496 83.7679 164.168 83.3662C163.822 82.9462 163.693 82.3641 163.807 81.7745C163.947 81.115 168.612 59.2141 168.612 59.2141C168.836 58.1567 168.251 57.0955 167.237 56.7197C166.99 56.6276 166.736 56.5834 166.486 56.5834C165.708 56.5834 164.964 57.0034 164.573 57.7219L151.596 81.6271C151.571 81.6714 151.549 81.7193 151.526 81.7672C150.959 83.0162 149.57 83.9963 148.361 83.9963H128.594C127.956 83.9963 127.337 83.731 126.899 83.2741C126.508 82.8651 126.302 82.3604 126.302 81.8114C126.302 81.7266 126.298 81.6419 126.287 81.5571L123.152 55.0101C123.027 53.9526 122.153 53.142 121.092 53.0941C121.059 53.0941 121.026 53.0941 120.993 53.0941C119.972 53.0941 119.08 53.8089 118.867 54.8185L113.181 81.7082C112.876 82.9941 111.686 84 110.47 84H97.5111C96.8995 84 96.3542 83.7531 96.0115 83.322C95.7499 82.9941 95.6247 82.5778 95.6431 82.1245C95.691 80.9934 94.8657 80.017 93.7456 79.877C93.6534 79.8659 93.5613 79.8586 93.4692 79.8586C92.456 79.8586 91.5606 80.566 91.3432 81.5829L91.3027 81.7672C91.0448 83.0273 89.8805 84.0037 88.6498 84.0037H77.5594C76.9146 84.0037 76.2367 83.9447 75.6324 83.521C75.625 83.5173 75.0834 83.0862 74.7297 82.3161L70.4667 71.97C70.1277 71.152 69.3318 70.6251 68.4586 70.6251C68.3923 70.6251 68.3296 70.6251 68.2633 70.6325C67.3164 70.7172 66.5316 71.4099 66.3326 72.3421L64.3098 81.7635C64.0593 82.9867 62.8728 84.0037 61.7159 84.0037H47.8547C47.2983 84.0037 46.7935 83.7752 46.4656 83.3736C46.1193 82.9499 45.9866 82.3677 46.1082 81.7745C46.1193 81.7229 46.4435 80.1975 46.4435 80.1975C46.6756 79.1032 46.0419 78.0089 44.9734 77.6736C44.756 77.6036 44.5349 77.5705 44.3175 77.5705C43.4701 77.5705 42.6706 78.0716 42.3205 78.8895C41.053 81.8519 37.1953 84.0037 33.1534 84.0037H7.03743C4.42141 84.0037 2.21069 83.1157 0.961634 81.5682C0.117876 80.5181 -0.180571 79.2764 0.103138 77.9758L6.00576 50.0802C6.25262 48.8569 7.52379 47.84 8.78021 47.84H21.7387C22.2951 47.84 22.7999 48.0684 23.1278 48.47C23.4741 48.8901 23.6031 49.4685 23.4889 50.0617C23.3489 50.725 18.3047 74.4828 18.3047 74.4828C18.0505 75.7208 18.2789 76.8741 18.9237 77.67C19.469 78.3369 20.276 78.7016 21.1971 78.7016C23.2789 78.7016 25.3606 76.8078 25.8396 74.4828L31.0201 50.0875C31.2669 48.8643 32.5381 47.8437 33.7945 47.8437H46.753C47.3094 47.8437 47.8142 48.0721 48.1421 48.4737C48.4 48.7869 48.54 49.1848 48.5437 49.6196C48.5584 50.7286 49.4022 51.6461 50.5039 51.7566C50.5776 51.764 50.6476 51.7677 50.7213 51.7677C51.7382 51.7677 52.6298 51.0566 52.8472 50.047C53.1015 48.8532 54.3137 47.8437 55.4927 47.8437H66.8853C68.1859 47.8437 68.9118 48.2821 69.4755 49.4096L73.5875 59.9842C73.9154 60.8243 74.7223 61.3696 75.614 61.3696C75.6729 61.3696 75.7319 61.3696 75.7908 61.3622C76.7488 61.2848 77.541 60.5885 77.7436 59.6489L79.7812 50.0838C80.0317 48.8606 81.2734 47.8437 82.4967 47.8437H96.2989C96.87 47.8437 97.3785 48.0684 97.6991 48.459C97.9496 48.7648 98.0859 49.1627 98.0896 49.6012C98.1007 50.7065 98.9407 51.6314 100.042 51.7419C100.116 51.7493 100.19 51.7529 100.263 51.7529C101.277 51.7529 102.168 51.0455 102.386 50.0396C102.647 48.8274 103.889 47.8437 105.153 47.8437H118.111C118.668 47.8437 119.173 48.0721 119.5 48.4737C119.53 48.5106 119.556 48.5437 119.581 48.5842C119.972 49.1443 120.606 49.487 121.287 49.5127C121.313 49.5127 121.339 49.5127 121.365 49.5127C122.021 49.5127 122.643 49.218 123.056 48.7058C123.491 48.1679 124.136 47.8473 124.784 47.8473H138.465C139.695 47.8473 140.694 48.8495 140.694 50.0765L140.793 62.276C140.801 63.304 141.53 64.1882 142.536 64.3909C142.68 64.4204 142.824 64.4351 142.967 64.4351C143.822 64.4351 144.614 63.9303 144.964 63.1197C144.964 63.1197 150.579 50.0728 150.587 50.0617C151.084 48.8422 152.514 47.8473 153.774 47.8473H167.455C167.775 47.8473 168.228 47.921 168.553 48.2784C168.98 48.7464 169.566 48.9859 170.159 48.9859C170.645 48.9859 171.135 48.8237 171.541 48.4884C172.042 48.0758 172.631 47.8473 173.203 47.8473H206.29C206.828 47.8473 207.314 48.0647 207.627 48.4479C207.719 48.5585 207.797 48.6874 207.859 48.8201C208.18 49.5349 208.865 50.0249 209.646 50.0949C209.713 50.1023 209.775 50.1023 209.842 50.1023C210.553 50.1023 211.227 49.7522 211.632 49.159C212.174 48.3742 213.077 47.8437 213.88 47.8437H247.03C249.491 47.8437 251.484 48.6321 252.645 50.0691C253.024 50.5407 253.308 51.075 253.477 51.6608C253.721 52.4935 254.439 53.1015 255.301 53.2083C255.39 53.2194 255.478 53.2231 255.567 53.2231C256.333 53.2231 257.051 52.8178 257.442 52.1472C259.074 49.3543 263.035 47.8437 265.935 47.8437H294.022C295.835 47.8437 298.462 48.4737 299.899 50.246C299.921 50.2754 299.947 50.3049 299.973 50.3381C300.389 50.8797 301.03 51.1929 301.701 51.1929C301.815 51.1929 301.925 51.1855 302.04 51.1671C302.828 51.0418 303.484 50.4965 303.749 49.7412C304.132 48.6579 305.23 47.84 306.31 47.84H339.397C339.935 47.84 340.421 48.0574 340.735 48.4405C341.081 48.8606 341.206 49.4575 341.085 50.0691L340.48 53.0831C340.175 54.369 338.984 55.3748 337.769 55.3748H322.607C321.575 55.3748 320.683 56.1007 320.477 57.1139L319.862 60.1168C319.729 60.7579 319.895 61.4212 320.308 61.9296C320.72 62.4344 321.339 62.7292 321.991 62.7292H330.477C331.018 62.7292 331.501 62.9502 331.807 63.3334C332.142 63.7572 332.253 64.3577 332.113 64.9841C332.105 65.0099 332.102 65.0357 332.098 65.0615L331.744 66.948C331.439 68.1786 330.248 69.1771 329.091 69.1771H319.7C318.675 69.1771 317.787 69.8919 317.574 70.8941L316.94 73.838C316.804 74.4791 316.962 75.1497 317.375 75.6619C317.787 76.174 318.41 76.4688 319.066 76.4688H333.31C333.841 76.4688 334.324 76.6825 334.633 77.0583C334.987 77.4894 335.119 78.1084 334.998 78.7569C334.998 78.7569 334.335 81.7708 334.331 81.7819C334.084 82.9831 332.898 84 331.741 84H298.654H298.657ZM269.251 71.222C269.87 71.222 270.305 71.3878 270.577 71.7342C270.983 72.2426 271.02 73.0864 270.699 74.4755C270.423 75.7171 270.644 76.922 271.285 77.7215C271.793 78.359 272.53 78.6943 273.411 78.6943C275.47 78.6943 277.438 76.8962 277.983 74.5086C277.987 74.4865 277.991 74.4681 277.998 74.446C278.3 72.9243 278.337 71.7452 277.582 70.5735C277.574 70.5662 277.571 70.5551 277.563 70.5478C277.456 70.3856 277.339 70.194 277.213 69.9877C276.661 69.0739 276.252 68.4734 275.802 68.0717C275.485 67.7917 275.095 67.6112 274.678 67.5485L263.824 65.9458C260.843 65.5036 257.892 64.8183 256.506 62.8029C256.307 62.5118 256.141 62.1949 256.016 61.8596C255.696 61.0085 254.881 60.4521 253.982 60.4521C253.945 60.4521 253.912 60.4521 253.875 60.4521C252.932 60.5 252.125 61.1485 251.882 62.0623C251.296 64.2472 249.653 66.1337 247.372 67.239C246.753 67.5375 246.315 68.1123 246.186 68.7865C246.057 69.4608 246.252 70.1572 246.716 70.662C247.343 71.351 247.98 72.39 248.551 73.6759C248.901 74.4644 249.686 74.9655 250.537 74.9655C250.6 74.9655 250.662 74.9655 250.721 74.9581C251.646 74.8808 252.416 74.2249 252.645 73.3259C252.94 72.1616 254.119 71.2146 255.272 71.2146H269.255L269.251 71.222ZM186.592 69.1734C185.568 69.1734 184.68 69.8882 184.466 70.8904L183.832 73.8344C183.696 74.4755 183.855 75.146 184.267 75.6582C184.68 76.1703 185.303 76.4651 185.958 76.4651H200.203C200.733 76.4651 201.216 76.6788 201.526 77.0546C201.566 77.1062 201.607 77.1578 201.643 77.2168C202.049 77.8468 202.741 78.2189 203.475 78.2189C203.604 78.2189 203.733 78.2079 203.865 78.1821C204.731 78.0237 205.42 77.3568 205.604 76.4946L209.775 56.9113C209.967 56.0123 209.573 55.0911 208.791 54.6085C208.441 54.3911 208.043 54.2842 207.649 54.2842C207.167 54.2842 206.688 54.4427 206.293 54.7558C205.8 55.1501 205.221 55.3675 204.665 55.3675H189.503C188.471 55.3675 187.58 56.0933 187.373 57.1066L186.758 60.1095C186.625 60.7506 186.791 61.4138 187.204 61.9223C187.616 62.427 188.235 62.7218 188.888 62.7218H197.373C197.915 62.7218 198.397 62.9429 198.703 63.3261C199.038 63.7498 199.149 64.3504 199.009 64.9767C199.002 65.0025 198.998 65.0283 198.994 65.0541L198.641 66.9406C198.335 68.1712 197.145 69.1697 195.988 69.1697H186.596L186.592 69.1734ZM278.893 53.0831C276.664 53.0831 274.781 55.2938 274.317 57.3387C274.317 57.3534 274.31 57.3682 274.31 57.3792C273.893 59.3983 274.033 60.9311 274.726 61.9296C275.268 62.7107 276.163 63.2008 277.386 63.3887L288.477 65.0173C291.281 65.4262 294.339 66.1226 295.78 68.1897C295.831 68.2633 295.879 68.337 295.927 68.4107C296.329 69.0555 297.032 69.4387 297.773 69.4387C297.898 69.4387 298.023 69.4277 298.149 69.4055C299.022 69.2545 299.718 68.5839 299.903 67.718L300.931 62.8913C301.1 62.1028 300.816 61.2885 300.201 60.7727C299.803 60.4374 299.306 60.2642 298.805 60.2642C298.528 60.2642 298.252 60.3158 297.987 60.4227C297.673 60.5516 297.353 60.6142 297.04 60.6142L283.182 59.7484C283.142 59.7484 283.101 59.7447 283.064 59.7447C282.106 59.7373 281.804 59.5199 281.646 59.3283C281.358 58.982 281.403 58.4662 281.613 57.3608C281.893 56.086 281.675 54.8516 281.03 54.0484C280.522 53.4147 279.785 53.0794 278.901 53.0794L278.893 53.0831ZM230.346 53.0831C229.322 53.0831 228.434 53.7979 228.22 54.8037L226.894 61.0011C226.757 61.6422 226.916 62.3128 227.328 62.825C227.741 63.3371 228.364 63.6319 229.02 63.6319H230.939C231.941 63.6319 232.667 63.5287 233.22 63.304C233.894 63.0313 234.384 62.4381 234.528 61.727L235.762 55.7028C235.887 55.0948 235.747 54.4648 235.379 53.9674C235.011 53.4699 234.447 53.1531 233.832 53.0978C233.728 53.0867 233.629 53.0831 233.533 53.0831H230.35H230.346ZM178.902 36.1637C178.291 36.1637 177.746 35.9168 177.403 35.4857C177.278 35.3273 177.182 35.1467 177.119 34.9515C176.854 34.1224 176.117 33.5292 175.247 33.4482C175.181 33.4408 175.111 33.4371 175.045 33.4371C174.253 33.4371 173.512 33.8719 173.133 34.5793C172.624 35.5263 171.64 36.16 170.693 36.16H140.996C140.465 36.16 139.983 35.9352 139.666 35.5447C139.415 35.2352 139.275 34.8483 139.264 34.4283C139.238 33.5513 138.689 32.7702 137.868 32.457C137.614 32.3612 137.352 32.3133 137.09 32.3133C136.505 32.3133 135.93 32.5492 135.513 32.9913C133.66 34.9441 130.65 36.16 127.658 36.16H101.56C98.9444 36.16 96.7337 35.272 95.4847 33.7245C94.8251 32.9029 94.4935 31.9375 94.5267 30.9316C94.5635 29.8189 93.7529 28.8573 92.6476 28.7025C92.5481 28.6878 92.4486 28.6804 92.3491 28.6804C91.3617 28.6804 90.4774 29.3547 90.2379 30.3421C89.3499 33.9824 86.4833 36.1563 82.563 36.1563H56.4654C54.2105 36.1563 52.3756 35.4157 51.2887 34.0672C50.596 33.2087 50.2423 32.1475 50.2681 31.0016C50.2938 29.9073 49.5017 28.9678 48.4221 28.802C48.3116 28.7836 48.201 28.7762 48.0942 28.7762C47.1399 28.7762 46.2777 29.4062 46.0051 30.3532C45.0729 33.6066 40.9425 36.1526 36.6021 36.1526H4.60932C3.99769 36.1526 3.45238 35.9058 3.10972 35.4747C2.77443 35.0509 2.6602 34.4688 2.79653 33.8793C2.79653 33.8682 9.48765 2.22913 9.48765 2.22913C9.73819 1.00955 11.0057 -0.00738525 12.2621 -0.00738525H44.266C46.8414 -0.00738525 49.0337 0.865849 50.2828 2.38756C50.9386 3.18711 51.285 4.13035 51.2887 5.1178C51.2887 6.21948 52.1214 7.14798 53.2157 7.27325C53.3004 7.28431 53.3815 7.28799 53.4626 7.28799C54.4611 7.28799 55.3453 6.60267 55.5775 5.60784C56.3512 2.30282 59.8663 -0.00370072 64.1256 -0.00370072H90.2231C92.2459 -0.00370072 93.7824 0.563717 94.663 1.63592C95.3299 2.4502 95.6357 3.5224 95.5694 4.83041C95.5105 5.96156 96.3358 6.94901 97.4596 7.0964C97.5554 7.10745 97.6475 7.11482 97.7433 7.11482C98.7565 7.11482 99.6519 6.40739 99.8692 5.39046L100.536 2.2365C100.783 1.01323 102.054 -0.00370072 103.311 -0.00370072H116.269C116.825 -0.00370072 117.33 0.22474 117.658 0.626355C118.005 1.04639 118.133 1.62855 118.019 2.21807C117.872 2.91077 112.835 26.6355 112.835 26.6355C112.581 27.8735 112.809 29.0304 113.458 29.8226C114.003 30.4895 114.81 30.8543 115.731 30.8543C117.813 30.8543 119.895 28.9604 120.374 26.6355L125.554 2.24018C125.801 1.01692 127.072 -0.00370072 128.329 -0.00370072H141.287C141.843 -0.00370072 142.348 0.22474 142.676 0.626355C142.79 0.766367 142.882 0.924802 142.949 1.09797C143.247 1.86804 143.962 2.4023 144.787 2.47599C144.85 2.47967 144.916 2.48336 144.979 2.48336C145.734 2.48336 146.442 2.08911 146.836 1.43695C147.359 0.574771 148.339 -0.00370072 149.275 -0.00370072H178.781C179.23 0.0810435 179.606 0.327907 179.86 0.714783C179.953 0.851111 180.023 1.00218 180.074 1.15693C180.339 1.98226 181.073 2.57179 181.939 2.65653C182.009 2.6639 182.079 2.66759 182.145 2.66759C182.933 2.66759 183.667 2.24018 184.05 1.54012C184.547 0.633723 185.583 -1.61869e-05 186.566 -1.61869e-05H199.525C200.081 -1.61869e-05 200.586 0.228425 200.914 0.630039C201.26 1.05376 201.393 1.63592 201.271 2.22913C201.234 2.39862 194.58 33.8719 194.58 33.8719C194.274 35.1578 193.084 36.1637 191.868 36.1637H178.91H178.902ZM179.82 8.29387C179.26 8.29387 178.707 8.51126 178.287 8.92392C178.287 8.92392 177.679 9.47292 177.668 9.48029L161.202 24.9295C160.55 25.5412 160.34 26.4844 160.668 27.3134C160.996 28.1424 161.799 28.6878 162.691 28.6878H172.263C172.827 28.6878 173.335 28.9125 173.659 29.3031C173.763 29.4284 173.847 29.572 173.914 29.7268C174.249 30.5485 175.048 31.0753 175.925 31.0753C175.992 31.0753 176.058 31.0753 176.124 31.068C177.075 30.9832 177.856 30.2868 178.055 29.351L181.953 10.9173C182.152 9.9777 181.71 9.01972 180.866 8.55916C180.538 8.3823 180.181 8.29387 179.827 8.29387H179.82ZM76.0598 5.24307C74.0259 5.24307 71.9184 7.15166 71.3657 9.49503C71.362 9.51345 67.7438 26.6392 67.7438 26.6392C67.4896 27.8808 67.718 29.0452 68.3702 29.8447C68.9044 30.4969 69.6892 30.858 70.5772 30.858C72.6921 30.858 74.7997 28.9641 75.2787 26.6392C75.2787 26.6355 78.7863 10.0293 78.9006 9.49871C79.1769 8.26808 78.9669 7.10376 78.3221 6.29317C77.7805 5.61521 76.9809 5.24307 76.0635 5.24307H76.0598ZM24.959 20.3128C24.55 20.3128 24.1484 20.427 23.7984 20.6481C23.3046 20.9613 22.9546 21.4587 22.833 22.0335L21.5066 28.2309C21.3703 28.872 21.5287 29.5426 21.9414 30.0547C22.354 30.5669 22.9767 30.8616 23.6326 30.8616H25.3422C26.2781 30.8616 27.2545 30.6295 27.9545 30.2389C28.5035 29.9331 28.8941 29.4099 29.0267 28.7946L30.2647 23.0541C30.39 22.4793 30.2721 21.8751 29.9442 21.385C29.6163 20.895 29.1041 20.5597 28.5219 20.4565C28.2198 20.4012 27.8993 20.3755 27.5713 20.3755H25.4601C25.2943 20.3349 25.1248 20.3165 24.9553 20.3165L24.959 20.3128ZM144.117 5.41993C144.014 5.41993 143.914 5.4273 143.811 5.44204C142.905 5.571 142.179 6.24895 141.991 7.14429L138.376 24.2147C138.222 24.9443 138.454 25.7033 138.988 26.2228C139.397 26.6207 139.946 26.8381 140.502 26.8381C140.672 26.8381 140.841 26.8197 141.011 26.7792L141.243 26.7239C141.633 26.6281 141.991 26.4291 142.278 26.1417L157.134 11.1789C157.753 10.5562 157.938 9.6203 157.599 8.8097C157.26 7.99911 156.471 7.47222 155.59 7.47222H147.702C147.076 7.47222 146.523 7.22904 146.184 6.80163C146.125 6.72794 146.077 6.65057 146.033 6.56951C145.65 5.85471 144.909 5.41993 144.117 5.41993ZM51.3403 12.9253C50.4818 12.9253 49.6785 13.4338 49.3322 14.2628C48.9269 15.2355 48.3042 16.1088 47.5341 16.7904C46.7456 17.4868 46.5688 18.6511 47.1141 19.5501C47.5157 20.2097 47.7184 21.0387 47.6999 21.9487C47.6778 23.0688 48.5105 24.0231 49.627 24.1521C49.7117 24.1632 49.7928 24.1668 49.8775 24.1668C50.8907 24.1668 51.7861 23.4594 52.0035 22.4425L53.4662 15.5561C53.6984 14.4581 53.0573 13.3638 51.9851 13.0285C51.7714 12.9622 51.554 12.929 51.3366 12.929L51.3403 12.9253ZM28.1867 5.24307C27.1624 5.24307 26.2744 5.95787 26.0607 6.96375L24.7342 13.1611C24.5979 13.8022 24.7564 14.4728 25.169 14.985C25.5817 15.4971 26.2044 15.7919 26.8602 15.7919H28.5404C29.5241 15.7919 30.5448 15.5377 31.2669 15.1103C31.7938 14.7971 32.166 14.2776 32.2912 13.677L33.485 7.89962C33.6029 7.32115 33.485 6.72057 33.1497 6.23053C32.8144 5.74049 32.2986 5.41256 31.7164 5.31308C31.4327 5.26518 31.1343 5.24307 30.8285 5.24307H28.1867Z" fill="black"/>
</g>
<defs>
<clipPath id="clip0_76_274">
<rect width="341.133" height="84" fill="white"/>
</clipPath>
</defs>
</svg>
