<svg width="40" height="40" viewBox="0 0 40 40" fill="none" xmlns="http://www.w3.org/2000/svg">
<g clip-path="url(#clip0_76_255)">
<path d="M11.7168 0.138306C9.58881 0.238706 8.13521 0.579506 6.86521 1.07711C5.55041 1.58951 4.43601 2.27671 3.32721 3.38991C2.21721 4.50391 1.53561 5.62031 1.02681 6.93631C0.534409 8.20951 0.200409 9.66391 0.106809 11.7931C0.0132093 13.9267 -0.0079907 14.6071 0.0024093 20.0383C0.0128093 25.4687 0.0368093 26.1503 0.138409 28.2843C0.240009 30.4119 0.579609 31.8647 1.07721 33.1355C1.59041 34.4503 2.27681 35.5643 3.39041 36.6735C4.50361 37.7827 5.62081 38.4639 6.93761 38.9731C8.20961 39.4651 9.66441 39.7999 11.7932 39.8931C13.9264 39.9871 14.6076 40.0079 20.0372 39.9975C25.4692 39.9871 26.1504 39.9631 28.2836 39.8619C30.4116 39.7603 31.8636 39.4195 33.1352 38.9231C34.45 38.4087 35.5644 37.7235 36.6732 36.6099C37.782 35.4967 38.4636 34.3795 38.9724 33.0627C39.4648 31.7907 39.8 30.3359 39.8924 28.2083C39.9856 26.0739 40.0076 25.3919 39.9972 19.9619C39.9868 14.5311 39.9624 13.8507 39.8612 11.7179C39.76 9.58871 39.4192 8.13631 38.9224 6.86511C38.4084 5.55031 37.7228 4.43711 36.6096 3.32711C35.4964 2.21831 34.3792 1.53551 33.0624 1.02791C31.7896 0.535506 30.3356 0.199906 28.2068 0.107906C26.074 0.0127062 25.3932 -0.00809378 19.9616 0.00230622C14.5312 0.0127062 13.8504 0.0359062 11.7172 0.138306M11.9504 36.2935C10.0004 36.2087 8.94161 35.8847 8.23601 35.6131C7.30161 35.2515 6.63481 34.8179 5.93281 34.1215C5.23241 33.4223 4.79761 32.7575 4.43281 31.8251C4.15881 31.1195 3.82881 30.0619 3.73761 28.1119C3.63841 26.0039 3.61561 25.3715 3.60601 20.0311C3.59561 14.6923 3.61521 14.0595 3.70721 11.9499C3.79081 10.0015 4.11681 8.94111 4.38761 8.23631C4.74921 7.30071 5.18121 6.63511 5.87921 5.93311C6.57841 5.23151 7.24321 4.79791 8.17641 4.43311C8.88161 4.15751 9.93881 3.83031 11.888 3.73791C13.9972 3.63791 14.6292 3.61671 19.968 3.60631C25.308 3.59591 25.9408 3.61471 28.0504 3.70751C29.9988 3.79231 31.0592 4.11511 31.7636 4.38791C32.6988 4.74951 33.3656 5.18031 34.0668 5.87951C34.768 6.57871 35.2028 7.24231 35.5676 8.17751C35.8428 8.88071 36.1704 9.93951 36.2624 11.8879C36.3628 13.9971 36.3856 14.6295 36.3952 19.9687C36.4056 25.3091 36.386 25.9415 36.2936 28.0499C36.2088 29.9999 35.8852 31.0591 35.6132 31.7655C35.2516 32.6991 34.8192 33.3659 34.1208 34.0679C33.4224 34.7671 32.7576 35.2031 31.8236 35.5679C31.12 35.8427 30.0612 36.1707 28.1132 36.2631C26.004 36.3623 25.372 36.3851 20.0312 36.3947C14.6924 36.4051 14.0604 36.3851 11.9508 36.2935M28.2544 9.30911C28.2568 10.6335 29.334 11.7059 30.6584 11.7035C31.9836 11.7011 33.056 10.6247 33.054 9.29991C33.0512 7.97551 31.9744 6.90231 30.6492 6.90471C29.324 6.90711 28.2516 7.98431 28.254 9.30871M9.73081 20.0195C9.74161 25.6915 14.3484 30.2795 20.0192 30.2683C25.6904 30.2571 30.2808 25.6519 30.27 19.9799C30.2588 14.3099 25.6516 9.71951 19.9796 9.73031C14.3088 9.74151 9.71961 14.3487 9.73081 20.0195ZM13.3332 20.0123C13.3268 16.3311 16.3064 13.3403 19.9868 13.3339C23.668 13.3267 26.6592 16.3051 26.6664 19.9871C26.6736 23.6691 23.694 26.6591 20.012 26.6663C16.3312 26.6735 13.34 23.6947 13.3332 20.0127" fill="#383838"/>
</g>
<defs>
<clipPath id="clip0_76_255">
<rect width="40" height="40" fill="white"/>
</clipPath>
</defs>
</svg>
