<svg width="40" height="40" viewBox="0 0 40 40" fill="none" xmlns="http://www.w3.org/2000/svg">
<g clip-path="url(#clip0_76_244)">
<path d="M30.9825 0H9.0175C4.03727 0 0 4.03727 0 9.0175V30.9825C0 35.9627 4.03727 40 9.0175 40H30.9825C35.9627 40 40 35.9627 40 30.9825V9.0175C40 4.03727 35.9627 0 30.9825 0Z" fill="#383838"/>
<path d="M33.3325 18.115C33.3325 12.1475 27.35 7.29248 19.9963 7.29248C12.6425 7.29248 6.66003 12.1475 6.66003 18.115C6.66003 23.465 11.405 27.945 17.8138 28.7925C18.2475 28.8862 18.8388 29.0787 18.9888 29.45C19.1238 29.7875 19.0763 30.315 19.0325 30.6562C19.0325 30.6562 18.8763 31.5975 18.8425 31.7975C18.7838 32.135 18.575 33.1162 19.9975 32.5162C21.4213 31.9162 27.6775 27.9937 30.475 24.7737C32.4075 22.6537 33.3338 20.5037 33.3338 18.115H33.3325Z" fill="white"/>
<path d="M28.8951 21.5612H25.1488C25.0075 21.5612 24.8938 21.4475 24.8938 21.3062V21.3025V15.4925V15.4862C24.8938 15.345 25.0075 15.2312 25.1488 15.2312H28.8951C29.035 15.2312 29.15 15.3462 29.15 15.4862V16.4325C29.15 16.5737 29.0363 16.6875 28.8951 16.6875H26.3488V17.67H28.8951C29.035 17.67 29.15 17.785 29.15 17.925V18.8712C29.15 19.0125 29.0363 19.1262 28.8951 19.1262H26.3488V20.1087H28.8951C29.035 20.1087 29.15 20.2237 29.15 20.3637V21.31C29.15 21.4512 29.0363 21.565 28.8951 21.565V21.5612Z" fill="#383838"/>
<path d="M15.0362 21.5612C15.1762 21.5612 15.2912 21.4475 15.2912 21.3062V20.36C15.2912 20.22 15.1762 20.105 15.0362 20.105H12.4899V15.485C12.4899 15.345 12.3749 15.23 12.2349 15.23H11.2887C11.1474 15.23 11.0337 15.3437 11.0337 15.485V21.3012V21.3062C11.0337 21.4475 11.1474 21.5612 11.2887 21.5612H15.0349H15.0362Z" fill="#383838"/>
<path d="M17.2913 15.2312H16.3463C16.2055 15.2312 16.0913 15.3454 16.0913 15.4862V21.3062C16.0913 21.447 16.2055 21.5612 16.3463 21.5612H17.2913C17.4321 21.5612 17.5463 21.447 17.5463 21.3062V15.4862C17.5463 15.3454 17.4321 15.2312 17.2913 15.2312Z" fill="#383838"/>
<path d="M23.73 15.2312H22.7838C22.6425 15.2312 22.5288 15.345 22.5288 15.4862V18.9425L19.8663 15.3462C19.86 15.3375 19.8526 15.3287 19.8463 15.32C19.8463 15.32 19.8463 15.32 19.845 15.3187C19.84 15.3137 19.835 15.3075 19.83 15.3025C19.8288 15.3012 19.8263 15.3 19.8251 15.2987C19.8201 15.295 19.8163 15.2912 19.8113 15.2875C19.8088 15.2862 19.8063 15.2837 19.8038 15.2825C19.8 15.2787 19.7951 15.2762 19.7901 15.2737C19.7876 15.2725 19.785 15.27 19.7825 15.2687C19.7775 15.2662 19.7738 15.2637 19.7688 15.2612C19.7663 15.26 19.7638 15.2587 19.7613 15.2575C19.7563 15.255 19.7513 15.2525 19.7463 15.2512C19.7438 15.2512 19.7413 15.2487 19.7375 15.2487C19.7325 15.2475 19.7275 15.245 19.7225 15.2437C19.72 15.2437 19.7163 15.2425 19.7138 15.2412C19.7088 15.2412 19.7038 15.2387 19.6988 15.2375C19.695 15.2375 19.6913 15.2375 19.6875 15.2362C19.6825 15.2362 19.6788 15.235 19.6738 15.235C19.6688 15.235 19.665 15.235 19.66 15.235C19.6575 15.235 19.6538 15.235 19.6513 15.235H18.7113C18.5713 15.235 18.4563 15.3487 18.4563 15.49V21.31C18.4563 21.45 18.57 21.565 18.7113 21.565H19.6575C19.7988 21.565 19.9125 21.4512 19.9125 21.31V17.8537L22.5788 21.455C22.5976 21.4812 22.62 21.5025 22.6451 21.5187C22.6451 21.5187 22.6475 21.52 22.6475 21.5212C22.6525 21.525 22.6575 21.5275 22.6638 21.5312C22.6663 21.5325 22.6688 21.5337 22.6713 21.535C22.675 21.5375 22.68 21.5387 22.6838 21.5412C22.6875 21.5437 22.6926 21.545 22.6963 21.5462C22.6988 21.5462 22.7013 21.5487 22.7038 21.5487C22.7101 21.5512 22.7151 21.5525 22.7213 21.5537C22.7213 21.5537 22.7238 21.5537 22.725 21.5537C22.7463 21.5587 22.7688 21.5625 22.7913 21.5625H23.7313C23.8713 21.5625 23.9863 21.4487 23.9863 21.3075V15.4875C23.9863 15.3475 23.8726 15.2325 23.7313 15.2325L23.73 15.2312Z" fill="#383838"/>
</g>
<defs>
<clipPath id="clip0_76_244">
<rect width="40" height="40" fill="white"/>
</clipPath>
</defs>
</svg>
