<svg width="157" height="68" viewBox="0 0 157 68" fill="none" xmlns="http://www.w3.org/2000/svg">
<g clip-path="url(#clip0_98_287)">
<path d="M30.4433 0.789034C30.4433 0.789034 27.2722 1.93067 25.3695 4.08709C23.4667 6.24351 20.5493 9.92211 15.2217 12.2054C9.89409 14.4887 0 22.4801 0 35.1649C0 47.8498 6.75716 59.2661 33.7591 59.2661C60.7611 59.2661 69.766 46.0739 69.766 35.1649C69.766 24.256 63.5873 17.0383 49.8687 8.68153C36.9126 0.789034 37.0394 0.789034 37.0394 0.789034C37.0394 0.789034 33.8682 -0.986842 30.4433 0.789034Z" fill="#383838"/>
<path d="M68.3961 15.5403C68.3961 15.5403 65.6055 16.5449 63.9311 18.4426C62.2567 20.3402 59.6893 23.5774 55.001 25.5867C50.3128 27.5959 41.606 34.6284 41.606 45.791C41.606 56.9537 47.5526 67.0001 71.3136 67.0001C95.0746 67.0001 103 55.3909 103 45.791C103 36.1912 97.5621 29.8399 85.4901 22.4865C74.089 15.5403 74.2006 15.5403 74.2006 15.5403C74.2006 15.5403 71.41 13.9775 68.3961 15.5403Z" fill="#6D6D6D"/>
</g>
<path d="M111.692 56V43.76H115.418C116.33 43.76 117.05 43.892 117.578 44.156C118.118 44.42 118.502 44.792 118.73 45.272C118.97 45.752 119.09 46.316 119.09 46.964V47.468C119.09 48.416 118.682 49.142 117.866 49.646C118.442 49.874 118.88 50.204 119.18 50.636C119.48 51.068 119.63 51.584 119.63 52.184V52.688C119.63 53.348 119.51 53.93 119.27 54.434C119.03 54.926 118.634 55.31 118.082 55.586C117.53 55.862 116.792 56 115.868 56H111.692ZM115.418 45.74H113.852V48.8H115.418C115.898 48.8 116.258 48.692 116.498 48.476C116.75 48.248 116.876 47.942 116.876 47.558V46.964C116.876 46.58 116.75 46.28 116.498 46.064C116.258 45.848 115.898 45.74 115.418 45.74ZM115.868 50.78H113.852V54.02H115.868C116.372 54.02 116.756 53.9 117.02 53.66C117.284 53.42 117.416 53.096 117.416 52.688V52.094C117.416 51.686 117.284 51.368 117.02 51.14C116.756 50.9 116.372 50.78 115.868 50.78ZM128.863 56.09C128.251 56.09 127.759 55.964 127.387 55.712C127.027 55.46 126.763 55.148 126.595 54.776C126.079 55.256 125.581 55.61 125.101 55.838C124.621 56.066 124.105 56.18 123.553 56.18C122.749 56.18 122.155 55.922 121.771 55.406C121.399 54.89 121.213 54.236 121.213 53.444C121.213 52.916 121.309 52.454 121.501 52.058C121.705 51.65 122.035 51.332 122.491 51.104C122.947 50.876 123.571 50.762 124.363 50.762C124.675 50.762 124.999 50.786 125.335 50.834C125.671 50.87 126.007 50.918 126.343 50.978V49.916C126.343 49.412 126.205 49.07 125.929 48.89C125.653 48.698 125.281 48.602 124.813 48.602C124.453 48.602 124.057 48.65 123.625 48.746C123.205 48.842 122.749 48.992 122.257 49.196L121.663 47.432C122.875 46.94 123.973 46.694 124.957 46.694C125.845 46.694 126.529 46.844 127.009 47.144C127.501 47.444 127.843 47.84 128.035 48.332C128.227 48.824 128.323 49.352 128.323 49.916V53.426C128.323 53.606 128.371 53.78 128.467 53.948C128.575 54.104 128.779 54.182 129.079 54.182H129.277V56.09H128.863ZM123.211 53.408C123.211 53.732 123.283 53.99 123.427 54.182C123.571 54.362 123.781 54.452 124.057 54.452C124.333 54.452 124.645 54.38 124.993 54.236C125.341 54.092 125.791 53.756 126.343 53.228V52.454C125.719 52.346 125.107 52.292 124.507 52.292C124.039 52.292 123.703 52.388 123.499 52.58C123.307 52.772 123.211 53.048 123.211 53.408ZM132.658 50.906V51.968C132.658 52.736 132.796 53.312 133.072 53.696C133.348 54.08 133.792 54.272 134.404 54.272C134.704 54.272 135.04 54.236 135.412 54.164C135.796 54.08 136.21 53.954 136.654 53.786L137.248 55.532C136.708 55.748 136.198 55.91 135.718 56.018C135.238 56.126 134.764 56.18 134.296 56.18C133.096 56.18 132.178 55.796 131.542 55.028C130.906 54.26 130.588 53.24 130.588 51.968V50.906C130.588 49.622 130.906 48.602 131.542 47.846C132.178 47.078 133.096 46.694 134.296 46.694C134.752 46.694 135.214 46.748 135.682 46.856C136.15 46.964 136.642 47.12 137.158 47.324L136.564 49.106C135.7 48.77 134.98 48.602 134.404 48.602C133.792 48.602 133.348 48.794 133.072 49.178C132.796 49.55 132.658 50.126 132.658 50.906ZM144.597 56L142.347 52.202C141.987 52.562 141.609 52.922 141.213 53.282V56H139.143V42.68H141.213V50.996C141.897 50.3 142.485 49.634 142.977 48.998C143.481 48.35 143.943 47.642 144.363 46.874H146.739C146.343 47.594 145.911 48.278 145.443 48.926C144.975 49.574 144.459 50.228 143.895 50.888L147.099 56H144.597Z" fill="#383838"/>
<g clip-path="url(#clip1_98_287)">
<path d="M107.921 68.0003C104.968 68.0003 102.352 67.5381 100.625 66.3012C99.1494 65.2444 98.4003 63.7202 98.4003 61.7695C98.4003 59.8189 97.7342 58.3648 96.3626 57.3305C90.9762 53.2689 76.9826 57.2829 76.8428 57.3239C76.5593 57.4073 76.2546 57.2895 76.099 57.0379C75.9433 56.7862 75.9737 56.4605 76.1728 56.2406L79.846 52.2148C80.0926 51.9447 80.5094 51.9274 80.7771 52.1738C81.0449 52.4201 81.0633 52.8399 80.818 53.1087L78.6405 55.4951C82.9573 54.4913 92.5549 52.8015 97.1539 56.2698C98.8566 57.553 99.7205 59.403 99.7205 61.7682C99.7205 63.2872 100.267 64.4168 101.392 65.2219C103.913 67.0269 109.305 67.162 116.985 65.6113C122.89 64.4194 128.074 62.6343 128.126 62.6157C128.47 62.4966 128.846 62.6806 128.964 63.0263C129.083 63.3719 128.9 63.7493 128.556 63.8685C127.915 64.091 116.501 67.999 107.921 67.999V68.0003Z" fill="#383838"/>
</g>
<defs>
<clipPath id="clip0_98_287">
<rect width="103" height="67" fill="white"/>
</clipPath>
<clipPath id="clip1_98_287">
<rect width="53" height="16" fill="white" transform="translate(76 52)"/>
</clipPath>
</defs>
</svg>
