<svg width="337" height="84" viewBox="0 0 337 84" fill="none" xmlns="http://www.w3.org/2000/svg">
<g clip-path="url(#clip0_76_231)">
<path d="M57.8113 84C57.228 84 56.6919 83.7599 56.3488 83.3353C56.13 83.065 55.9885 82.7305 55.9413 82.3702C55.8169 81.388 55.0364 80.616 54.0542 80.5045C53.9727 80.4959 53.8955 80.4916 53.814 80.4916C52.9219 80.4916 52.1113 81.0492 51.7982 81.907C51.3607 83.1208 50.1683 84 48.9717 84H35.3799C34.7537 84 34.2004 83.7513 33.8573 83.3138C33.5056 82.8678 33.3855 82.2416 33.5356 81.6025L34.6679 76.2327C34.8781 75.2248 34.3462 74.2126 33.3984 73.8137C33.1282 73.7022 32.8451 73.6464 32.5663 73.6464C31.8672 73.6464 31.1895 73.9895 30.7821 74.6029L27.3123 79.8097H25.408L24.0912 74.4527C23.8553 73.492 22.9933 72.8186 22.0111 72.8186C21.9982 72.8186 21.9853 72.8186 21.9768 72.8186C20.9774 72.8358 20.1196 73.5392 19.9138 74.5214C19.9138 74.5214 18.5198 81.1264 18.4169 81.6068C18.0866 82.9492 16.8385 84 15.5647 84H1.96859C1.32524 84 0.750517 83.7384 0.390241 83.2838C0.0385435 82.8377 -0.0815485 82.2244 0.0599884 81.6025L7.11539 48.2384C7.30839 47.2777 11.3186 46.0639 14.8056 45.888H28.3502C28.4231 45.888 28.4703 45.8966 28.496 45.9009C28.4017 45.9609 28.2215 46.0424 27.8956 46.1411C27.7197 46.1968 27.5053 46.2612 27.2823 46.3384C26.2272 46.6901 25.6138 47.7923 25.8755 48.8775L28.4574 59.5656C28.659 60.3934 29.3281 61.0239 30.1645 61.174C30.2888 61.1955 30.4175 61.2083 30.5419 61.2083C31.2496 61.2083 31.9187 60.8609 32.3218 60.2604L40.8998 47.4878C41.1572 47.0932 42.3538 46.7072 44.3696 46.3512C45.9051 46.081 47.6035 45.8923 48.1654 45.8923H61.7572C61.9373 45.8923 62.0103 45.9266 62.0188 45.9266C62.0188 45.9266 62.0274 45.9395 62.036 45.9609C62.3877 46.763 63.1726 47.2433 64.0004 47.2433C64.2491 47.2433 64.5022 47.2005 64.7466 47.1104C65.2184 46.9345 65.7974 46.7587 66.4579 46.5914C68.0792 46.1797 69.9406 45.8923 70.5968 45.8923H105.466C105.488 45.8923 105.689 45.8923 105.715 45.9481C105.552 46.111 105.119 46.3212 104.947 46.4027C104.356 46.6901 103.746 46.9989 103.313 47.3034C102.863 47.6208 102.554 48.0969 102.447 48.6373L101.889 51.4165C101.568 52.7676 100.311 53.8312 99.0329 53.8312H82.9363C81.9155 53.8312 81.0405 54.5475 80.8347 55.5468L80.127 59.0081C79.9983 59.6385 80.1613 60.2948 80.5645 60.7923C80.9676 61.2898 81.581 61.5815 82.2243 61.5815H91.347C91.9174 61.5815 92.4278 61.8131 92.7495 62.2205C93.1012 62.6666 93.217 63.3013 93.0712 63.9619C93.0669 63.9876 92.6809 66.0249 92.6809 66.0249C92.3506 67.3416 91.124 68.3752 89.8845 68.3752H79.8654C78.8531 68.3752 77.9825 69.0829 77.768 70.0694L77.0389 73.4663C76.9017 74.101 77.0603 74.7615 77.4678 75.2634C77.8753 75.7695 78.4886 76.0611 79.1362 76.0611H94.3278C94.731 76.0611 95.2972 76.1683 95.7218 76.683C96.0906 77.1291 96.2322 77.7724 96.1078 78.4501C96.0392 78.7632 95.4044 81.6497 95.4044 81.6497C95.147 82.9407 93.899 84 92.6723 84H57.8028H57.8113ZM299.325 38.1078C298.699 38.1078 298.145 37.859 297.802 37.4215C297.45 36.9755 297.33 36.3493 297.48 35.7102L302.782 10.5252C302.915 9.89476 302.756 9.23426 302.348 8.73245C301.941 8.23063 301.328 7.93898 300.684 7.93898H292.214C291.768 7.93898 291.36 7.8146 291.034 7.583C290.665 7.31708 290.228 7.17983 289.782 7.17983C289.52 7.17983 289.263 7.22701 289.01 7.32137C288.336 7.583 287.839 8.16201 287.684 8.86969L286.518 14.2695C286.256 15.5906 284.974 16.6414 283.657 16.6414H270.001C269.37 16.6414 268.813 16.4012 268.461 15.9808C268.105 15.5519 267.972 14.9343 268.092 14.2953C268.092 14.2953 268.933 10.2722 268.984 10.0149C269.276 8.711 269.053 7.47577 268.371 6.61797C267.809 5.91458 266.99 5.52857 266.055 5.52857C263.825 5.52857 261.62 7.51008 261.037 10.0363L257.228 28.0758C256.962 29.3797 257.203 30.5977 257.884 31.4341C258.459 32.1375 259.308 32.5235 260.278 32.5235C262.474 32.5235 264.665 30.5291 265.167 28.0758C265.167 28.0758 265.978 24.19 266.059 23.804C266.398 22.4529 267.672 21.4107 268.976 21.4107H282.632C283.241 21.4107 283.794 21.6638 284.142 22.1098C284.498 22.5602 284.622 23.1778 284.476 23.804C284.476 23.8168 282.821 31.7644 282.821 31.7644C282.057 35.2556 277.584 38.1164 272.849 38.1164H245.348C242.723 38.1164 240.45 37.2543 239.116 35.7488C238.704 35.2856 238.116 35.0283 237.512 35.0283C237.353 35.0283 237.194 35.0454 237.036 35.0798C236.272 35.2513 235.667 35.8303 235.449 36.5809C235.183 37.5116 234.381 38.1121 233.411 38.1121H217.787C216.401 38.1121 215.183 37.0141 215.183 35.7617V32.635C215.183 31.4513 214.222 30.4905 213.039 30.4905H207.176C206.331 30.4905 205.563 30.9881 205.216 31.7601C205.216 31.7601 203.431 35.766 203.423 35.7831C202.921 37.0012 201.291 38.1078 200.004 38.1078H184.315C183.839 38.1078 183.47 37.9448 183.217 37.6274C183.14 37.5288 183.076 37.413 183.024 37.2886C182.741 36.5552 182.081 36.0362 181.304 35.9333C181.21 35.9204 181.116 35.9161 181.026 35.9161C180.348 35.9161 179.7 36.2378 179.293 36.7953C178.701 37.606 177.779 38.1078 176.887 38.1078H162.849C162.223 38.1078 161.669 37.859 161.326 37.4215C160.975 36.9755 160.854 36.3493 161.005 35.7102L166.306 10.5252C166.439 9.89476 166.28 9.23426 165.873 8.73245C165.465 8.23063 164.852 7.93898 164.208 7.93898H155.738C155.129 7.93898 154.58 7.6988 154.237 7.27848C153.825 6.77666 153.211 6.49359 152.581 6.49359C152.414 6.49359 152.242 6.51504 152.075 6.55364C151.273 6.75093 150.655 7.3857 150.484 8.19203L144.616 35.7574C144.35 37.087 143.124 38.1078 141.82 38.1078H130.132C129.455 38.1078 128.738 38.0477 128.099 37.6017C128.095 37.5974 127.525 37.1428 127.147 36.3321L122.472 24.992C122.138 24.1857 121.353 23.6667 120.491 23.6667C120.426 23.6667 120.362 23.6667 120.298 23.6753C119.363 23.7611 118.591 24.443 118.393 25.3609L116.159 35.7617C115.901 37.0484 114.653 38.1121 113.427 38.1121H98.8184C98.2351 38.1121 97.699 37.8719 97.3559 37.4473C96.9913 37.0012 96.8541 36.3879 96.9784 35.7617L97.2401 34.5308C97.4631 33.48 96.8755 32.4249 95.8633 32.0646C95.6274 31.9788 95.3829 31.9402 95.1428 31.9402C94.3579 31.9402 93.6116 32.3734 93.2342 33.1068C91.7201 36.0534 87.8214 38.1121 83.7555 38.1121H56.2544C53.5009 38.1121 51.1677 37.1771 49.8552 35.5472C49.5121 35.1226 49.2505 34.6551 49.0832 34.1662C48.813 33.3942 48.1311 32.8409 47.3204 32.7422C47.2347 32.7294 47.1446 32.7251 47.0588 32.7251C46.3426 32.7251 45.6649 33.0854 45.266 33.6944C43.5418 36.3364 39.8705 38.1078 36.1305 38.1078H8.62512C5.87158 38.1078 3.53836 37.1728 2.22593 35.543C1.33382 34.4364 1.02501 33.1283 1.32524 31.7558L6.71651 6.35205C7.41991 2.83937 11.8933 4.9606e-05 16.6884 4.9606e-05H44.1895C46.9044 4.9606e-05 49.2162 0.917895 50.5286 2.52198C50.8846 2.95946 51.1591 3.43554 51.3349 3.94164C51.6052 4.71366 52.2957 5.26265 53.1063 5.35701C53.1921 5.36558 53.2736 5.36987 53.3551 5.36987C54.0756 5.36987 54.7576 5.00531 55.1564 4.38769C56.8506 1.76283 60.5348 -0.00423939 64.3177 -0.00423939H91.8188C94.5337 -0.00423939 96.8455 0.913606 98.1579 2.51769C98.7841 3.28542 99.1401 4.14751 99.2044 5.09109C99.2816 6.15905 100.131 7.00398 101.195 7.07689C101.246 7.07689 101.293 7.08118 101.345 7.08118C102.348 7.08118 103.228 6.37779 103.442 5.38274L104.09 2.34613C104.347 1.05943 105.625 -0.00423939 106.886 -0.00423939H118.891C120.263 -0.00423939 121.027 0.458972 121.623 1.64702L126.135 13.2488C126.457 14.0765 127.254 14.617 128.134 14.617C128.189 14.617 128.25 14.617 128.305 14.6084C129.249 14.5312 130.034 13.8449 130.231 12.9185L132.483 2.34184C132.732 1.09803 134.091 -0.00852839 135.339 -0.00852839H149.883C150.316 -0.00852839 150.921 0.102986 151.359 0.63911C151.423 0.716312 151.483 0.802092 151.53 0.892161C151.878 1.51835 152.512 1.9301 153.229 1.99014C153.289 1.99443 153.349 1.99872 153.409 1.99872C154.056 1.99872 154.678 1.70278 155.086 1.19239C155.678 0.454683 156.583 -0.00423939 157.458 -0.00423939H198.109C198.666 -0.00423939 199.185 0.218788 199.528 0.604798C199.949 1.08088 200.541 1.32535 201.132 1.32535C201.591 1.32535 202.05 1.17952 202.436 0.883583C203.183 0.308857 203.989 -0.00423939 204.709 -0.00423939H229.225C230.456 -0.00423939 231.567 1.05085 231.704 2.34613L234.677 27.544C234.801 28.5862 235.659 29.3883 236.71 29.4354C236.744 29.4354 236.778 29.4354 236.808 29.4354C237.816 29.4354 238.695 28.732 238.906 27.737L243.452 6.34776C244.155 2.83508 248.624 -0.00423939 253.424 -0.00423939H280.925C283.64 -0.00423939 285.952 0.913606 287.264 2.51769C287.298 2.56058 287.333 2.59918 287.363 2.64207C287.774 3.17391 288.401 3.47414 289.061 3.47414C289.177 3.47414 289.293 3.46556 289.409 3.44411C290.185 3.31544 290.833 2.77074 291.09 2.02446C291.489 0.862138 292.707 -0.0128174 293.925 -0.0128174H334.576C335.159 -0.0128174 335.695 0.227366 336.039 0.651977C336.403 1.09803 336.54 1.71136 336.416 2.33755C336.416 2.33755 335.841 5.2026 335.773 5.54572C335.455 6.83671 334.126 7.92612 332.86 7.92612H323.866C322.854 7.92612 321.975 8.63809 321.769 9.62885C321.769 9.62885 316.485 34.7281 316.279 35.7059C315.949 37.0484 314.671 38.0949 313.363 38.0949H299.325V38.1078ZM187.399 7.93898C186.387 7.93898 185.508 8.65096 185.302 9.64171L180.768 31.1725C180.55 32.2147 181.129 33.2612 182.128 33.6258C182.372 33.7159 182.621 33.7587 182.866 33.7587C183.633 33.7587 184.367 33.3427 184.753 32.635L196.415 11.1043C196.775 10.4395 196.758 9.63314 196.372 8.9855C195.986 8.33786 195.287 7.93898 194.527 7.93898H187.399ZM76.8974 5.52428C74.74 5.52428 72.5183 7.54868 71.9436 10.0363L68.1349 28.0758C67.8647 29.384 68.1092 30.6106 68.7954 31.4555C69.3573 32.1461 70.1851 32.5235 71.1201 32.5235C73.3504 32.5235 75.5721 30.5291 76.0739 28.0758L79.8825 10.0363C80.1827 8.72816 79.9726 7.50579 79.2778 6.63513C78.7116 5.92315 77.8667 5.52857 76.8974 5.52857V5.52428ZM29.3281 5.52428C27.0978 5.52428 24.8933 7.50579 24.31 10.032L20.5013 28.0715C20.2354 29.3754 20.4756 30.5935 21.1576 31.4298C21.7323 32.1332 22.5815 32.5192 23.5508 32.5192C25.7468 32.5192 27.9385 30.5248 28.4403 28.0715C28.4403 28.0715 29.2509 24.1857 29.3324 23.7997C29.6712 22.4487 30.9451 21.4064 32.2489 21.4064H45.9051C46.5141 21.4064 47.0631 21.6595 47.4148 22.1012C47.8265 22.6202 48.4485 22.9119 49.0961 22.9119C49.2591 22.9119 49.4221 22.8947 49.585 22.8561C50.3914 22.6674 51.0176 22.0283 51.1934 21.2134L51.8024 18.357C51.9826 17.5034 51.6309 16.6242 50.906 16.1353C50.5415 15.8908 50.1255 15.7664 49.7051 15.7664C49.2848 15.7664 48.8688 15.8865 48.5085 16.131C48.0196 16.4569 47.4577 16.6371 46.9259 16.6371H33.2697C32.6392 16.6371 32.0816 16.3969 31.7299 15.9766C31.374 15.5477 31.241 14.93 31.3611 14.291C31.3611 14.291 32.2017 10.2765 32.2532 10.0106C32.5448 8.70671 32.3218 7.47148 31.6399 6.61368C31.078 5.91029 30.2588 5.52428 29.3238 5.52428H29.3281ZM213 16.8043C212.155 16.8043 211.375 17.3061 211.031 18.1039L209.427 21.8439C209.144 22.5044 209.213 23.2679 209.607 23.8683C210.002 24.4688 210.675 24.8333 211.396 24.8333H213.03C213.601 24.8333 214.15 24.606 214.553 24.1986C214.956 23.7911 215.179 23.2421 215.175 22.6717L215.145 18.9317C215.136 17.9152 214.42 17.0488 213.425 16.8472C213.283 16.8172 213.142 16.8043 213 16.8043Z" fill="black"/>
<path d="M132 59.92C134.12 59.92 135.88 61.64 135.88 63.8C135.88 65.96 134.12 67.68 132 67.68C129.84 67.68 128.08 65.96 128.08 63.8C128.08 61.64 129.84 59.92 132 59.92ZM159.88 80.36C151.08 80.36 144.04 73.32 144.04 64.52H145.72C145.72 72.4 152 78.68 159.88 78.68C167.76 78.68 174.04 72.4 174.04 64.52H175.72C175.72 73.32 168.68 80.36 159.88 80.36ZM187.742 59.92C189.862 59.92 191.622 61.64 191.622 63.8C191.622 65.96 189.862 67.68 187.742 67.68C185.582 67.68 183.822 65.96 183.822 63.8C183.822 61.64 185.582 59.92 187.742 59.92Z" fill="black"/>
</g>
<defs>
<clipPath id="clip0_76_231">
<rect width="336.463" height="84" fill="white"/>
</clipPath>
</defs>
</svg>
