<svg width="281" height="39" viewBox="0 0 281 39" fill="none" xmlns="http://www.w3.org/2000/svg">
<path d="M237.269 39C234.505 39 232.072 38.0177 230.751 36.376C230.303 35.8167 229.996 35.2073 229.842 34.557C229.806 34.416 229.679 34.316 229.535 34.316C229.385 34.316 229.259 34.4206 229.232 34.5661L228.802 36.5943C228.535 37.945 227.282 39 225.957 39H214.062C213.37 39 212.642 38.9363 211.995 38.4816C211.995 38.4816 211.412 38.0268 211.023 37.181L203.976 19.9957C203.926 19.8774 203.809 19.8001 203.682 19.8001C203.673 19.8001 203.664 19.8001 203.655 19.8001C203.515 19.8138 203.402 19.9138 203.374 20.0503L199.838 36.5989C199.575 37.9268 198.327 39.0045 197.056 39.0045H182.189C181.583 39.0045 181.054 38.7635 180.701 38.327C180.33 37.8722 180.19 37.2401 180.317 36.5989L187.558 2.41021C187.82 1.08232 189.096 0.00454757 190.403 0.00454757H202.619C203.999 0.00454757 204.804 0.495686 205.401 1.69625L212.257 19.4227C212.307 19.5455 212.425 19.6273 212.551 19.6273C212.56 19.6273 212.569 19.6273 212.578 19.6273C212.719 19.6182 212.832 19.5136 212.863 19.3772L216.454 2.41476C216.712 1.10961 218.047 0.00909515 219.363 0.00909515H234.166C234.786 0.00909515 235.319 0.245569 235.668 0.673041C236.034 1.12325 236.17 1.75536 236.038 2.41476L235.672 4.13829C235.64 4.28836 235.717 4.43843 235.857 4.49755C235.898 4.51574 235.939 4.52484 235.98 4.52484C236.084 4.52484 236.183 4.47481 236.242 4.38386C238.01 1.76901 241.719 0.0136427 245.478 0.0136427H273.47C276.233 0.0136427 278.585 0.954991 279.924 2.59667C280.851 3.73356 281.19 5.08874 280.905 6.51667L280.064 10.5458C279.738 11.9283 278.458 13.0152 277.156 13.0152H263.257C262.601 13.0152 262.018 12.7469 261.651 12.283C261.289 11.8237 261.167 11.2189 261.312 10.5777C261.317 10.5549 261.321 10.5322 261.321 10.5094V10.2866C261.629 8.94508 261.403 7.67176 260.702 6.78498C260.132 6.06646 259.295 5.67083 258.345 5.67083C256.115 5.67083 253.822 7.73997 253.239 10.2866L249.358 28.7452C249.087 30.0731 249.331 31.3282 250.023 32.1832C250.611 32.9108 251.457 33.2973 252.461 33.2973C254.695 33.2973 256.925 31.2555 257.441 28.7498L258.784 22.3104C258.802 22.2149 258.784 22.1194 258.721 22.0466C258.662 21.9739 258.571 21.9284 258.476 21.9284H254.858L255.894 17.0534H276.256C276.875 17.0534 277.436 17.3126 277.793 17.7674C278.164 18.2403 278.286 18.8633 278.133 19.5227L274.578 36.5534C274.252 37.9359 272.972 39.0227 271.669 39.0227H237.278L237.269 39ZM162.533 39C161.877 39 161.289 38.7317 160.927 38.2678C160.557 37.7994 160.439 37.181 160.593 36.5307L161.262 33.3428C161.298 33.1791 161.199 33.0154 161.041 32.9699C161.013 32.9608 160.982 32.9563 160.955 32.9563C160.823 32.9563 160.701 33.0381 160.656 33.1655C159.467 36.4897 155.188 38.9955 150.701 38.9955H122.709C119.946 38.9955 117.513 38.0132 116.192 36.3715C115.464 35.4574 115.116 34.4342 115.165 33.3246C115.174 33.1609 115.052 33.0154 114.889 32.9927C114.876 32.9927 114.862 32.9927 114.849 32.9927C114.699 32.9927 114.573 33.0972 114.541 33.2473L113.849 36.5307C113.524 37.9131 112.244 39 110.941 39H97.0422C96.3819 39 95.7894 38.7271 95.4231 38.2496C95.3688 38.1769 95.2829 38.1314 95.1924 38.1269C95.1879 38.1269 95.1788 38.1269 95.1743 38.1269C95.0884 38.1269 95.007 38.1632 94.9482 38.2224C94.4733 38.709 93.7089 39 92.9038 39H76.5492C76.0879 39 75.5813 38.718 75.1969 38.2496C74.8215 37.7858 74.6496 37.2401 74.7401 36.7899C75.3552 33.693 74.826 25.9348 72.456 23.0244C71.85 22.2831 71.1625 21.9057 70.4117 21.9057L71.4474 17.0307H74.0978C75.5542 17.0307 77.5397 16.8351 77.9106 15.1434L79.4619 7.53988C79.5479 7.18517 79.4846 6.85774 79.2629 6.57125C78.7971 5.97097 77.7071 5.65718 76.8749 5.65718H71.8274C71.6781 5.65718 71.547 5.76178 71.5198 5.9073L64.9798 36.5943C64.7129 37.8767 63.4103 39 62.1982 39H47.5894C46.9924 39 46.4678 38.7544 46.1059 38.3042C45.7305 37.8358 45.5858 37.2128 45.717 36.5943L49.1634 20.3186C49.195 20.173 49.1181 20.023 48.9825 19.9593C48.9418 19.9411 48.8965 19.932 48.8558 19.932C48.7563 19.932 48.6568 19.9775 48.598 20.0639C46.7753 22.6424 43.0711 24.3705 39.3805 24.3705H21.6011C21.4519 24.3705 21.3207 24.475 21.2891 24.6251L18.8196 36.5261C18.4939 37.9086 17.214 38.9955 15.9114 38.9955H2.00364C1.34782 38.9955 0.759855 38.7271 0.398027 38.2633C0.031676 37.7949 -0.0904409 37.1764 0.0678588 36.5261L7.2411 2.40567C7.4989 1.10051 8.86028 0 10.2126 0H44.541C47.3045 0 49.6564 0.941348 50.9951 2.58302C51.4429 3.13328 51.755 3.73356 51.9223 4.36567C51.9585 4.50665 52.0851 4.60215 52.2299 4.60215C52.2299 4.60215 52.2344 4.60215 52.2389 4.60215C52.3836 4.60215 52.5103 4.493 52.5419 4.35203L52.9535 2.41021C53.2249 1.10506 54.5275 0.00454757 55.7984 0.00454757H91.3525C93.9893 0.00454757 96.1286 0.854944 97.3769 2.40112C98.3855 3.6517 98.7157 5.27519 98.3358 7.08512L96.6533 14.9479C95.8618 18.7042 92.3928 21.5282 88.0282 21.9739C87.8835 21.9875 87.7659 22.1012 87.7478 22.2513C87.7297 22.3968 87.8156 22.5378 87.9513 22.5924C89.1001 23.0198 90.0318 23.6337 90.9635 24.5705C91.85 25.521 92.7682 27.1809 93.4828 29.1181C94.1069 30.7734 94.6406 32.547 94.9934 34.1068C95.0251 34.2523 95.1562 34.3569 95.3009 34.3569C95.4502 34.3569 95.5768 34.2523 95.6085 34.1023L102.275 2.40567C102.533 1.10051 103.894 0 105.247 0H119.145C119.751 0 120.276 0.241021 120.633 0.677589C121.004 1.13235 121.145 1.76446 121.018 2.40567L120.335 5.66173C120.299 5.82544 120.398 5.98916 120.561 6.03463C120.588 6.04373 120.615 6.04827 120.647 6.04827C120.778 6.04827 120.9 5.96642 120.945 5.83454C122.058 2.56483 126.436 0.00454757 130.914 0.00454757H158.906C161.669 0.00454757 164.021 0.945896 165.36 2.58757C166.111 3.51073 166.472 4.55212 166.436 5.68447C166.432 5.84818 166.549 5.98916 166.717 6.01189C166.73 6.01189 166.744 6.01189 166.753 6.01189C166.902 6.01189 167.033 5.9073 167.06 5.75723L167.766 2.40567C168.024 1.10051 169.385 0 170.738 0H184.636C185.242 0 185.771 0.241021 186.124 0.677589C186.495 1.13235 186.635 1.76446 186.509 2.40567L179.331 36.5307C179.005 37.9131 177.725 39 176.423 39H162.524H162.533ZM143.781 5.65264C141.552 5.65264 139.258 7.72178 138.675 10.2684L134.794 28.727C134.523 30.0549 134.767 31.3101 135.459 32.165C136.047 32.8926 136.893 33.2792 137.897 33.2792C140.131 33.2792 142.366 31.2373 142.877 28.7316L143.781 24.375C144.107 22.9925 145.414 21.9057 146.757 21.9057H160.656C161.276 21.9057 161.837 22.1649 162.194 22.6196C162.488 22.9971 162.628 23.4609 162.592 23.9703C162.583 24.1385 162.7 24.284 162.863 24.3068C162.877 24.3068 162.89 24.3068 162.908 24.3068C163.058 24.3068 163.184 24.2022 163.216 24.0521L165.057 15.2935C165.093 15.1343 164.998 14.9706 164.84 14.9251C164.808 14.916 164.776 14.9115 164.749 14.9115C164.623 14.9115 164.505 14.9888 164.455 15.1116C164.008 16.2212 162.845 17.0307 161.687 17.0307H147.789C147.137 17.0307 146.586 16.7896 146.224 16.3531C145.857 15.9074 145.722 15.2935 145.848 14.625L146.753 10.2684C147.06 8.93144 146.834 7.65357 146.133 6.76679C145.563 6.04827 144.727 5.65264 143.777 5.65264H143.781ZM25.5993 5.65264C25.4501 5.65264 25.3234 5.75723 25.2918 5.90275L22.456 19.0452C22.4379 19.1407 22.456 19.2362 22.5193 19.3135C22.5781 19.3863 22.6685 19.4318 22.7635 19.4318H27.024C28.9417 19.4318 30.778 18.5677 31.0313 17.5445L33.0982 7.599C33.1796 7.25793 33.0982 6.93505 32.8721 6.64401C32.3881 6.03008 31.2891 5.65264 29.9955 5.65264H25.5948H25.5993Z" fill="black"/>
</svg>
