<svg width="335" height="36" viewBox="0 0 335 36" fill="none" xmlns="http://www.w3.org/2000/svg">
<path d="M297.197 36C296.564 36 295.998 35.7649 295.645 35.3535C295.288 34.9296 295.166 34.3419 295.32 33.7332L300.811 9.52472C300.924 9.02938 300.788 8.51306 300.444 8.12267C300.101 7.72808 299.585 7.5014 299.038 7.5014H289.956C289.752 7.5014 289.558 7.47621 289.368 7.43004C289.214 7.39226 289.051 7.37127 288.893 7.37127C288.562 7.37127 288.237 7.45522 287.952 7.61474C287.527 7.85401 287.228 8.2444 287.124 8.69356L286.007 13.4958C285.758 14.7174 284.428 15.7164 283.099 15.7164H269.2C268.738 15.7164 268.096 15.6073 267.635 15.091C267.164 14.562 267.169 13.9324 267.259 13.4958L268.164 9.47435C268.467 8.2486 268.245 7.06063 267.544 6.24207C266.974 5.57882 266.137 5.21362 265.188 5.21362C262.958 5.21362 260.665 7.1236 260.081 9.47435L256.2 26.5131C255.929 27.743 256.173 28.8932 256.865 29.6866C257.449 30.3498 258.313 30.715 259.303 30.715C261.538 30.715 263.767 28.8302 264.283 26.5173L265.192 22.479C265.527 21.2113 266.829 20.2206 268.159 20.2206H282.058C282.678 20.2206 283.239 20.4599 283.596 20.8797C283.958 21.3078 284.085 21.8913 283.935 22.4832L282.253 29.9972C281.475 33.2966 276.92 35.9958 272.103 35.9958H244.111C241.306 35.9958 238.932 35.1143 237.593 33.5737C237.448 33.4058 237.317 33.2295 237.199 33.0532C236.869 32.541 236.277 32.2346 235.648 32.2346C235.553 32.2346 235.453 32.243 235.358 32.2556C234.626 32.3647 234.042 32.8769 233.879 33.5527L233.825 33.7794C233.563 34.9967 232.292 36 231.044 36H195.552C194.955 36 194.412 35.7733 194.064 35.3745C193.693 34.9548 193.552 34.3713 193.679 33.7794L193.896 32.8433C194.082 32.0415 193.611 31.2313 192.788 30.9291C192.571 30.8493 192.345 30.8116 192.128 30.8116C191.508 30.8116 190.911 31.1096 190.576 31.6259C188.889 34.2411 185.094 35.9958 181.137 35.9958H153.144C150.34 35.9958 147.965 35.1143 146.626 33.5737C146.441 33.3596 146.278 33.1329 146.142 32.9021C145.857 32.4193 145.337 32.0961 144.749 32.0373C144.686 32.0289 144.618 32.0289 144.555 32.0289C144.035 32.0289 143.537 32.2388 143.189 32.6082C141.23 34.6987 137.906 36 134.518 36H106.526C104.214 36 102.17 35.3955 100.772 34.2999C100.442 34.0396 100.031 33.9053 99.6054 33.9053C99.4787 33.9053 99.3521 33.9179 99.23 33.9431C98.6827 34.0522 98.2213 34.3881 97.9771 34.854C97.9093 34.9841 97.8188 35.1101 97.7057 35.2234C97.2399 35.702 96.4348 36 95.598 36H79.2429C78.7725 36 78.2795 35.7481 77.8905 35.3074C77.506 34.875 77.3387 34.3839 77.4337 33.9599C78.0488 31.1012 77.5196 23.9398 75.1496 21.2533C74.5435 20.569 73.856 20.2206 73.1052 20.2206C72.8519 20.1073 72.5805 20.0485 72.3091 20.0485C72.0377 20.0485 71.7709 20.1031 71.5176 20.2164C71.0155 20.4431 70.6537 20.8713 70.5361 21.375L67.673 33.7794C67.3971 34.9841 66.1262 36 64.8914 36H50.2821C49.6941 36 49.1559 35.7649 48.7986 35.3577C48.4232 34.9254 48.2785 34.3503 48.4096 33.7794L51.5214 20.2206C51.6978 19.4566 51.2817 18.6842 50.5219 18.3526C50.2731 18.2435 50.0108 18.1931 49.7529 18.1931C49.2147 18.1931 48.6855 18.4156 48.3327 18.8312C46.4331 21.0602 42.9097 22.5 39.3591 22.5H22.7959C21.9411 22.5 21.1993 23.0583 21.0229 23.8349C21.0229 23.8349 18.9197 33.1959 18.7976 33.7374C18.4629 35.0051 17.1919 35.9958 15.8938 35.9958H2.00371C1.34787 35.9958 0.759884 35.7481 0.398044 35.32C0.0362047 34.896 -0.0859161 34.3167 0.0633427 33.729L7.24133 2.22062C7.50367 1.00746 8.86057 0 10.2129 0H44.5425C47.306 0 49.658 0.868937 50.9968 2.38433C51.3812 2.8209 51.6707 3.30364 51.8516 3.81576C52.0959 4.5084 52.7924 4.97015 53.5704 4.97015C53.602 4.97015 53.6337 4.97015 53.6699 4.97015C54.4885 4.92817 55.1715 4.38666 55.3434 3.64366L55.669 2.22481C55.9359 1.04104 57.2656 0.00419776 58.514 0.00419776H94.0692C96.7061 0.00419776 98.8455 0.789179 100.094 2.21642C100.786 3.0056 101.166 3.99627 101.202 5.08349C101.229 5.90625 101.889 6.59049 102.771 6.69963C102.853 6.70802 102.934 6.71642 103.016 6.71642C103.803 6.71642 104.508 6.24207 104.743 5.52845C105.761 2.4305 110.162 0.00839552 114.762 0.00839552H142.755C145.518 0.00839552 147.87 0.877332 149.209 2.39272C150.123 3.42537 150.471 4.70989 150.191 6.01119L147.359 18.3736C147.228 18.9529 147.432 19.5532 147.902 19.9562C148.241 20.2458 148.68 20.4011 149.132 20.4011C149.304 20.4011 149.476 20.3801 149.643 20.334C149.892 20.2668 150.145 20.2332 150.39 20.2332H164.289C164.908 20.2332 165.469 20.4725 165.827 20.8923C166.188 21.3204 166.315 21.9039 166.166 22.4958L165.257 26.5299C164.985 27.7598 165.229 28.91 165.922 29.7034C166.505 30.3666 167.369 30.7318 168.359 30.7318C170.594 30.7318 172.824 28.847 173.339 26.534L178.898 2.23321C179.16 1.02006 180.517 0.0125933 181.87 0.0125933H195.769C196.366 0.0125933 196.909 0.239272 197.257 0.63806C197.451 0.860541 197.587 1.1334 197.65 1.42724C197.8 2.15345 198.446 2.70336 199.242 2.77892C199.306 2.78312 199.365 2.78731 199.428 2.78731C200.152 2.78731 200.812 2.38433 201.097 1.75466C201.549 0.743004 202.68 0.0125933 203.788 0.0125933H239.28C239.854 0.0125933 240.379 0.230877 240.714 0.608675C240.972 0.902519 241.121 1.28032 241.139 1.70009C241.166 2.35914 241.609 2.94263 242.265 3.1903C242.487 3.27425 242.717 3.31203 242.944 3.31203C243.4 3.31203 243.848 3.15252 244.192 2.84608C246.2 1.07043 249.244 0.00839552 252.338 0.00839552H280.331C282.75 0.00839552 284.854 0.671642 286.251 1.8722C286.586 2.16185 287.029 2.31716 287.481 2.31716C287.572 2.31716 287.662 2.31297 287.753 2.30037C288.296 2.22481 288.775 1.92257 289.051 1.48181C289.598 0.60028 290.67 0.00839552 291.715 0.00839552H333.087C333.684 0.00839552 334.227 0.235075 334.575 0.633862C334.946 1.05364 335.086 1.63713 334.959 2.22901C334.959 2.22901 334.376 4.94076 334.308 5.2514C333.978 6.47715 332.625 7.50979 331.341 7.50979H321.883C321.029 7.50979 320.291 8.0681 320.115 8.84468C320.115 8.84468 314.502 33.5863 314.461 33.771C314.145 35.0093 312.837 36.0126 311.499 36.0126H297.21L297.197 36ZM127.553 5.21782C125.355 5.21782 123.093 7.1278 122.51 9.47854L118.629 26.5173C118.358 27.7556 118.602 28.9142 119.299 29.7076C119.873 30.3582 120.71 30.7192 121.664 30.7192C123.935 30.7192 126.196 28.8344 126.707 26.5215L130.588 9.48274C130.891 8.26119 130.669 7.08162 129.973 6.26726C129.394 5.59562 128.534 5.22201 127.548 5.22201L127.553 5.21782ZM217.719 21.2407C216.864 21.2407 216.131 21.7948 215.95 22.5672L215.046 26.4669C214.933 26.9622 215.064 27.4785 215.408 27.8731C215.751 28.2677 216.267 28.4986 216.814 28.4986H232.74C233.264 28.4986 233.721 28.6623 234.051 28.9771C234.395 29.3004 234.861 29.4767 235.336 29.4767C235.508 29.4767 235.675 29.4557 235.842 29.4095C236.48 29.2374 236.964 28.7505 237.104 28.146L241.496 8.97481C241.645 8.32836 241.37 7.66511 240.8 7.27472C240.483 7.05644 240.108 6.94729 239.728 6.94729C239.425 6.94729 239.117 7.01866 238.841 7.16138C238.416 7.38386 237.959 7.5014 237.52 7.5014H220.831C219.971 7.5014 219.23 8.0639 219.058 8.84468L218.185 12.8074C218.076 13.3027 218.212 13.8148 218.556 14.2052C218.899 14.5956 219.415 14.8223 219.958 14.8223H229.7C230.279 14.8223 230.799 15.0406 231.125 15.4268C231.482 15.8507 231.604 16.451 231.451 17.0765C231.446 17.0975 231.057 19.0243 231.057 19.0243C230.722 20.271 229.474 21.2449 228.212 21.2449H217.714L217.719 21.2407ZM100.456 14.3521C99.7682 14.3521 99.1169 14.7174 98.8139 15.326C97.8821 17.1898 96.1181 18.6968 93.8431 19.5658C93.2687 19.784 92.8571 20.2626 92.7485 20.8293C92.64 21.396 92.8525 21.9753 93.3139 22.3615C93.436 22.4622 93.5536 22.5714 93.6757 22.6805C94.5622 23.562 95.4849 25.09 96.1996 26.8825L96.3353 27.2183C96.5976 27.8815 97.2806 28.3139 98.0314 28.3139C98.0766 28.3139 98.1173 28.3139 98.1625 28.3097C98.9676 28.2551 99.6325 27.7136 99.7999 26.9832L102.229 16.3839C102.419 15.5485 101.903 14.7132 101.03 14.4403C100.84 14.3815 100.65 14.3521 100.456 14.3521ZM26.8033 5.21782C25.953 5.21782 25.2157 5.76772 25.0348 6.54011L22.8457 15.9011C22.7281 16.3965 22.8638 16.917 23.203 17.3116C23.5467 17.7062 24.0623 17.937 24.6096 17.937H27.0204C28.6848 17.937 29.9332 17.3955 30.4986 16.9338C30.788 16.6945 30.9916 16.3755 31.0685 16.0229L33.0043 7.42584C33.1852 6.62826 32.7194 5.82229 31.9007 5.52006C31.5253 5.38153 30.8921 5.21782 29.992 5.21782H26.7942H26.8033ZM75.7466 5.21782C74.8917 5.21782 74.1545 5.77192 73.9781 6.54431L72.3272 13.6889C72.2096 14.1968 72.3498 14.7215 72.7117 15.1203C73.0554 15.5023 73.562 15.7206 74.1002 15.7206C74.1047 15.7206 76.8095 15.7206 76.8095 15.7206C77.6508 15.7206 80.2198 15.7206 80.6269 13.9701L82.0878 7.35448C82.2733 6.52752 81.7622 5.70056 80.8983 5.42771C80.6495 5.34795 80.152 5.21782 79.5866 5.21782H75.7466Z" fill="black"/>
</svg>
